<svg width="37" height="37" viewBox="0 0 37 37" fill="none" xmlns="http://www.w3.org/2000/svg">
<path d="M6 1H31C33.7614 1 36 3.23858 36 6V31C36 33.7614 33.7614 36 31 36H6C3.23858 36 1 33.7614 1 31V6C1 3.23858 3.23858 1 6 1Z" fill="url(#paint0_linear_60_51)" stroke="white" stroke-width="2"/>
<path d="M25 22.098V26.2766C25 27.2282 24.2154 28 23.248 28H14.752C13.7846 28 13 27.2282 13 26.2766V22.098C13 20.4345 13.6991 18.9322 14.826 17.8594C15.8716 18.9551 17.3553 19.6413 19 19.6413C20.6447 19.6413 22.1284 18.9551 23.174 17.8594C23.1972 17.8808 23.2204 17.9036 23.2422 17.925C24.3285 18.9922 25 20.4673 25 22.098Z" fill="#87CEEB"/>
<path d="M23.0783 14.0117C23.0783 15.1445 22.6011 16.1674 21.8339 16.895C21.1015 17.5955 20.1007 18.0249 18.9999 18.0249C17.8992 18.0249 16.8984 17.5955 16.166 16.895C15.3988 16.1674 14.9216 15.1445 14.9216 14.0117C14.9216 11.7961 16.7476 10 18.9999 10C21.2523 10 23.0783 11.7961 23.0783 14.0117Z" fill="#87CEEB"/>
<defs>
<linearGradient id="paint0_linear_60_51" x1="33.5" y1="1" x2="4" y2="37" gradientUnits="userSpaceOnUse">
<stop stop-color="white" stop-opacity="0.4"/>
<stop offset="1" stop-color="#E04556" stop-opacity="0"/>
</linearGradient>
</defs>
</svg>
