<svg width="12" height="18" viewBox="0 0 12 18" fill="none" xmlns="http://www.w3.org/2000/svg">
<path d="M12 12.098V16.2766C12 17.2282 11.2154 18 10.248 18H1.75199C0.784626 18 0 17.2282 0 16.2766V12.098C0 10.4345 0.699057 8.93224 1.82596 7.8594C2.87165 8.95506 4.35533 9.64128 6 9.64128C7.64467 9.64128 9.12835 8.95506 10.174 7.8594C10.1972 7.8808 10.2204 7.90362 10.2422 7.92502C11.3285 8.99216 12 10.4673 12 12.098Z" fill="#F8AA37"/>
<path d="M10.0783 4.01173C10.0783 5.14449 9.60111 6.16739 8.83389 6.89498C8.10147 7.59547 7.10075 8.02489 5.99995 8.02489C4.89915 8.02489 3.89843 7.59547 3.16601 6.89498C2.39879 6.16739 1.92163 5.14449 1.92163 4.01173C1.92163 1.79615 3.74759 0 5.99995 0C8.25231 0 10.0783 1.79615 10.0783 4.01173Z" fill="#F8AA37"/>
</svg>
