<svg width="161" height="46" viewBox="0 0 161 46" fill="none" xmlns="http://www.w3.org/2000/svg">
<g clip-path="url(#clip0_227_162)">
<path d="M91.3939 14.4473C90.7602 14.4473 90.1706 14.3439 89.6274 14.1347C89.0842 13.9255 88.612 13.6277 88.2132 13.2438C87.8144 12.8574 87.5037 12.4045 87.2786 11.8852C87.0535 11.3659 86.9434 10.7949 86.9434 10.1722C86.9434 9.54949 87.0559 8.97849 87.2786 8.45918C87.5012 7.93986 87.8144 7.487 88.2181 7.10059C88.6218 6.71418 89.094 6.41637 89.6323 6.20963C90.1706 6.00289 90.7627 5.89706 91.4061 5.89706C92.1181 5.89706 92.7616 6.02012 93.339 6.2687C93.914 6.51728 94.3984 6.88154 94.7899 7.36148L93.569 8.49609C93.2876 8.17368 92.9745 7.93248 92.6295 7.77004C92.2845 7.6076 91.9102 7.52884 91.5016 7.52884C91.1174 7.52884 90.7651 7.59283 90.4446 7.71835C90.1241 7.84387 89.8451 8.026 89.6103 8.26228C89.3754 8.49856 89.1943 8.77913 89.0646 9.10155C88.935 9.42397 88.8714 9.78331 88.8714 10.1771C88.8714 10.5709 88.935 10.9302 89.0646 11.2526C89.1943 11.5751 89.3754 11.8556 89.6103 12.0919C89.8451 12.3282 90.1241 12.5103 90.4446 12.6358C90.7651 12.7614 91.1174 12.8254 91.5016 12.8254C91.9077 12.8254 92.2845 12.7441 92.6295 12.5842C92.9745 12.4217 93.2876 12.1756 93.569 11.8458L94.7899 12.9804C94.3984 13.4604 93.914 13.8271 93.339 14.0781C92.764 14.3292 92.1157 14.4571 91.3963 14.4571L91.3939 14.4473Z" fill="#FDFFFB"/>
<path d="M98.8979 14.4005C98.2251 14.4005 97.6281 14.2578 97.1069 13.9747C96.5858 13.6917 96.1747 13.3028 95.8738 12.8106C95.5728 12.3184 95.4211 11.7572 95.4211 11.1271C95.4211 10.4971 95.5728 9.92359 95.8738 9.43135C96.1747 8.93911 96.5858 8.5527 97.1069 8.27458C97.6281 7.99401 98.2251 7.85618 98.8979 7.85618C99.5707 7.85618 100.158 7.99647 100.684 8.27458C101.208 8.55516 101.619 8.93911 101.917 9.42643C102.216 9.91621 102.362 10.4823 102.362 11.1271C102.362 11.772 102.213 12.3184 101.917 12.8106C101.619 13.3028 101.208 13.6917 100.684 13.9747C100.16 14.2578 99.5634 14.4005 98.8979 14.4005ZM98.8979 12.8869C99.2037 12.8869 99.4778 12.8155 99.72 12.6752C99.9622 12.5349 100.156 12.3307 100.295 12.0673C100.434 11.804 100.505 11.4914 100.505 11.1271C100.505 10.7629 100.434 10.4429 100.295 10.182C100.153 9.92113 99.9622 9.72177 99.72 9.57902C99.4778 9.43627 99.2037 9.36736 98.8979 9.36736C98.5921 9.36736 98.318 9.43874 98.0758 9.57902C97.8336 9.72177 97.6403 9.92113 97.4935 10.182C97.3491 10.4429 97.2757 10.7579 97.2757 11.1271C97.2757 11.4963 97.3467 11.8015 97.4935 12.0673C97.6379 12.3307 97.8311 12.5349 98.0758 12.6752C98.3205 12.8155 98.5921 12.8869 98.8979 12.8869Z" fill="#FDFFFB"/>
<path d="M103.76 14.3045V7.9497H105.509V9.74639L105.262 9.22707C105.45 8.77913 105.751 8.43702 106.167 8.20567C106.583 7.97432 107.087 7.85618 107.682 7.85618V9.55687C107.603 9.54949 107.532 9.54211 107.471 9.53964C107.408 9.53472 107.341 9.53472 107.271 9.53472C106.769 9.53472 106.365 9.67747 106.055 9.96544C105.746 10.2534 105.59 10.6989 105.59 11.3068V14.307H103.757L103.76 14.3045Z" fill="#FDFFFB"/>
<path d="M108.951 16.5959V7.94724H110.701V9.24676L110.667 11.137L110.784 13.0149V16.5935H108.951V16.5959ZM112.685 14.4005C112.152 14.4005 111.687 14.2824 111.288 14.0461C110.889 13.8098 110.578 13.4505 110.353 12.9656C110.131 12.4808 110.018 11.8679 110.018 11.1296C110.018 10.3912 110.123 9.76608 110.336 9.28614C110.549 8.8062 110.853 8.44687 111.251 8.21059C111.65 7.97432 112.127 7.85618 112.685 7.85618C113.28 7.85618 113.815 7.99155 114.288 8.26474C114.762 8.53547 115.137 8.91696 115.416 9.40428C115.695 9.8916 115.832 10.4675 115.832 11.1296C115.832 11.7917 115.692 12.3774 115.416 12.8672C115.139 13.357 114.762 13.7335 114.288 14.0018C113.813 14.2701 113.28 14.403 112.685 14.403V14.4005ZM112.369 12.8869C112.675 12.8869 112.947 12.8155 113.187 12.6752C113.426 12.5325 113.617 12.3307 113.762 12.0673C113.906 11.804 113.979 11.4914 113.979 11.1271C113.979 10.7629 113.906 10.4429 113.762 10.182C113.617 9.92113 113.424 9.72177 113.187 9.57902C112.947 9.43627 112.675 9.36736 112.369 9.36736C112.064 9.36736 111.79 9.43874 111.547 9.57902C111.305 9.72177 111.112 9.92113 110.972 10.182C110.83 10.4429 110.762 10.7579 110.762 11.1271C110.762 11.4963 110.833 11.8015 110.972 12.0673C111.112 12.3331 111.305 12.5349 111.547 12.6752C111.79 12.818 112.064 12.8869 112.369 12.8869Z" fill="#FDFFFB"/>
<path d="M120.238 14.4005C119.565 14.4005 118.968 14.2578 118.447 13.9747C117.926 13.6917 117.515 13.3028 117.214 12.8106C116.913 12.3184 116.761 11.7572 116.761 11.1271C116.761 10.4971 116.913 9.92359 117.214 9.43135C117.515 8.93911 117.926 8.5527 118.447 8.27458C118.968 7.99401 119.565 7.85618 120.238 7.85618C120.911 7.85618 121.498 7.99647 122.024 8.27458C122.548 8.55516 122.959 8.93911 123.257 9.42643C123.556 9.91621 123.703 10.4823 123.703 11.1271C123.703 11.772 123.553 12.3184 123.257 12.8106C122.959 13.3028 122.548 13.6917 122.024 13.9747C121.5 14.2578 120.903 14.4005 120.238 14.4005ZM120.238 12.8869C120.544 12.8869 120.818 12.8155 121.06 12.6752C121.302 12.5349 121.496 12.3307 121.635 12.0673C121.775 11.804 121.845 11.4914 121.845 11.1271C121.845 10.7629 121.775 10.4429 121.635 10.182C121.493 9.92113 121.302 9.72177 121.06 9.57902C120.818 9.43627 120.544 9.36736 120.238 9.36736C119.932 9.36736 119.658 9.43874 119.416 9.57902C119.174 9.72177 118.98 9.92113 118.834 10.182C118.689 10.4429 118.616 10.7579 118.616 11.1271C118.616 11.4963 118.687 11.8015 118.834 12.0673C118.978 12.3307 119.171 12.5349 119.416 12.6752C119.661 12.8155 119.932 12.8869 120.238 12.8869Z" fill="#FDFFFB"/>
<path d="M125.1 14.3045V7.9497H126.849V9.74639L126.602 9.22707C126.79 8.77913 127.091 8.43702 127.507 8.20567C127.923 7.97432 128.427 7.85618 129.022 7.85618V9.55687C128.943 9.54949 128.872 9.54211 128.811 9.53964C128.748 9.53472 128.682 9.53472 128.611 9.53472C128.109 9.53472 127.705 9.67747 127.395 9.96544C127.086 10.2534 126.93 10.6989 126.93 11.3068V14.307H125.097L125.1 14.3045Z" fill="#FDFFFB"/>
<path d="M131.828 14.4005C131.334 14.4005 130.913 14.3169 130.561 14.147C130.208 13.9772 129.939 13.7483 129.751 13.4554C129.562 13.165 129.469 12.8377 129.469 12.4759C129.469 12.1141 129.562 11.767 129.746 11.484C129.929 11.201 130.221 10.977 130.622 10.817C131.021 10.6546 131.542 10.5758 132.183 10.5758H133.861V11.6514H132.381C131.95 11.6514 131.654 11.7227 131.495 11.863C131.336 12.0033 131.255 12.183 131.255 12.3947C131.255 12.6309 131.348 12.818 131.532 12.9558C131.715 13.0936 131.967 13.1625 132.29 13.1625C132.613 13.1625 132.87 13.0887 133.112 12.9435C133.355 12.7983 133.531 12.5842 133.641 12.2987L133.922 13.1502C133.79 13.5613 133.546 13.8714 133.193 14.083C132.841 14.2947 132.386 14.403 131.83 14.403L131.828 14.4005ZM133.754 14.3045V13.0641L133.636 12.7934V10.5734C133.636 10.1796 133.516 9.87191 133.279 9.65286C133.039 9.43136 132.675 9.32306 132.18 9.32306C131.843 9.32306 131.512 9.37721 131.187 9.48304C130.862 9.58887 130.585 9.73408 130.36 9.91375L129.702 8.62654C130.047 8.38288 130.46 8.19337 130.947 8.06046C131.432 7.92756 131.926 7.85864 132.427 7.85864C133.391 7.85864 134.138 8.08753 134.671 8.54286C135.204 9.00064 135.469 9.71193 135.469 10.6817V14.3095H133.754V14.3045Z" fill="#FDFFFB"/>
<path d="M136.55 9.50765V8.08999H140.93V9.50765H136.55ZM139.885 14.4005C139.141 14.4005 138.561 14.2086 138.148 13.8271C137.732 13.4456 137.526 12.877 137.526 12.119V6.54189H139.359V12.0944C139.359 12.3627 139.43 12.5694 139.569 12.7146C139.711 12.8598 139.902 12.9337 140.144 12.9337C140.433 12.9337 140.68 12.8549 140.883 12.6974L141.378 13.9969C141.189 14.1298 140.964 14.2307 140.702 14.2972C140.44 14.3636 140.169 14.3981 139.885 14.3981V14.4005Z" fill="#FDFFFB"/>
<path d="M145.522 14.4005C144.8 14.4005 144.169 14.2578 143.626 13.9747C143.083 13.6917 142.662 13.3028 142.364 12.8106C142.065 12.3184 141.918 11.7572 141.918 11.1271C141.918 10.4971 142.065 9.92359 142.359 9.43135C142.652 8.93911 143.053 8.5527 143.562 8.27458C144.071 7.99401 144.646 7.85618 145.29 7.85618C145.933 7.85618 146.467 7.98908 146.963 8.25243C147.46 8.51578 147.854 8.89481 148.143 9.38705C148.431 9.87929 148.578 10.4675 148.578 11.1542C148.578 11.2256 148.573 11.3068 148.566 11.3954C148.559 11.4865 148.551 11.5701 148.541 11.6489H143.408V10.5734H147.577L146.873 10.8933C146.873 10.5635 146.807 10.2755 146.672 10.0319C146.54 9.78823 146.354 9.59625 146.119 9.45843C145.884 9.3206 145.61 9.25168 145.297 9.25168C144.984 9.25168 144.707 9.3206 144.47 9.45843C144.23 9.59625 144.044 9.78823 143.912 10.0368C143.78 10.2854 143.712 10.5783 143.712 10.9179V11.201C143.712 11.548 143.787 11.8532 143.942 12.1165C144.096 12.3799 144.309 12.5817 144.588 12.7195C144.866 12.8574 145.192 12.9263 145.569 12.9263C145.906 12.9263 146.2 12.8746 146.454 12.7737C146.709 12.6703 146.941 12.5177 147.154 12.3134L148.128 13.3767C147.839 13.7065 147.475 13.9624 147.037 14.1396C146.599 14.3169 146.092 14.4055 145.522 14.4055V14.4005Z" fill="#FDFFFB"/>
<path d="M87.4596 26.6106V18.3409H91.4771C92.5096 18.3409 93.2876 18.5378 93.8088 18.9316C94.3299 19.3254 94.5893 19.8447 94.5893 20.492C94.5893 20.9252 94.4841 21.3018 94.2712 21.6193C94.0608 21.9392 93.7696 22.1853 93.4026 22.3576C93.0356 22.5299 92.6123 22.6185 92.1352 22.6185L92.3579 22.1337C92.8741 22.1337 93.3317 22.2173 93.7329 22.3872C94.1317 22.557 94.4425 22.8056 94.6676 23.1378C94.8902 23.4676 95.0028 23.8737 95.0028 24.3537C95.0028 25.0625 94.7238 25.6163 94.1684 26.0125C93.613 26.4112 92.7934 26.6081 91.7144 26.6081H87.462L87.4596 26.6106ZM89.3509 25.1708H91.57C92.0643 25.1708 92.4362 25.0896 92.6906 24.9296C92.9451 24.7671 93.0723 24.5112 93.0723 24.1568C93.0723 23.8024 92.9451 23.5513 92.6906 23.384C92.4362 23.2141 92.0618 23.1304 91.57 23.1304H89.209V21.7374H91.2397C91.7022 21.7374 92.0569 21.6562 92.3016 21.4962C92.5487 21.3338 92.6711 21.0876 92.6711 20.7578C92.6711 20.428 92.5487 20.1918 92.3016 20.0318C92.0545 19.8693 91.6997 19.7906 91.2397 19.7906H89.3484V25.1782L89.3509 25.1708Z" fill="#FDFFFB"/>
<path d="M99.1573 26.7066C98.6337 26.7066 98.164 26.6032 97.7529 26.3989C97.3419 26.1947 97.0238 25.8821 96.7963 25.4587C96.5687 25.0379 96.4562 24.4989 96.4562 23.8467V20.2558H98.2888V23.5759C98.2888 24.1026 98.4013 24.4915 98.6239 24.7401C98.8466 24.9887 99.1622 25.1117 99.5684 25.1117C99.8497 25.1117 100.102 25.0502 100.32 24.9296C100.54 24.8065 100.711 24.6195 100.836 24.3635C100.961 24.1075 101.024 23.7876 101.024 23.4012V20.2582H102.857V26.6131H101.12V24.8656L101.438 25.3726C101.227 25.8132 100.914 26.1454 100.503 26.3719C100.092 26.5958 99.6442 26.709 99.1573 26.709V26.7066Z" fill="#FDFFFB"/>
<path d="M106.859 26.7066C106.319 26.7066 105.8 26.6426 105.303 26.5121C104.807 26.3817 104.413 26.2193 104.124 26.0224L104.736 24.6982C105.024 24.8804 105.367 25.028 105.763 25.1413C106.16 25.2545 106.549 25.3135 106.933 25.3135C107.356 25.3135 107.655 25.2619 107.831 25.1609C108.007 25.0576 108.095 24.9173 108.095 24.7352C108.095 24.585 108.027 24.4743 107.889 24.398C107.752 24.3241 107.571 24.2651 107.344 24.2257C107.116 24.1863 106.869 24.1469 106.598 24.1075C106.328 24.0682 106.054 24.014 105.78 23.9476C105.506 23.8811 105.257 23.7802 105.029 23.6473C104.802 23.5144 104.621 23.3323 104.484 23.1034C104.347 22.8745 104.278 22.5791 104.278 22.2173C104.278 21.8162 104.393 21.4617 104.626 21.1541C104.856 20.8464 105.191 20.6052 105.629 20.428C106.067 20.2508 106.593 20.1622 107.202 20.1622C107.633 20.1622 108.071 20.209 108.518 20.305C108.966 20.401 109.335 20.5363 109.634 20.7185L109.022 22.0303C108.716 21.8482 108.411 21.7251 108.1 21.6586C107.792 21.5922 107.491 21.5577 107.202 21.5577C106.796 21.5577 106.497 21.6119 106.309 21.7226C106.121 21.8334 106.028 21.9737 106.028 22.1484C106.028 22.3059 106.096 22.4241 106.233 22.5028C106.37 22.5816 106.551 22.6456 106.779 22.6923C107.006 22.7391 107.253 22.781 107.525 22.8154C107.794 22.8499 108.066 22.904 108.342 22.9754C108.616 23.0468 108.866 23.1477 109.088 23.2757C109.311 23.4061 109.495 23.5833 109.634 23.8073C109.776 24.0312 109.844 24.3241 109.844 24.6884C109.844 25.0822 109.727 25.4317 109.492 25.7344C109.257 26.0371 108.92 26.2759 108.477 26.4482C108.034 26.6204 107.496 26.709 106.862 26.709L106.859 26.7066Z" fill="#FDFFFB"/>
<path d="M112.064 19.3697C111.726 19.3697 111.452 19.2713 111.242 19.0744C111.031 18.8775 110.923 18.6338 110.923 18.3409C110.923 18.048 111.029 17.8044 111.242 17.6075C111.452 17.4106 111.726 17.3121 112.064 17.3121C112.401 17.3121 112.675 17.4057 112.886 17.5903C113.096 17.7749 113.204 18.0136 113.204 18.304C113.204 18.6117 113.101 18.8652 112.893 19.067C112.685 19.2688 112.409 19.3673 112.066 19.3673L112.064 19.3697ZM111.146 26.6106V20.2558H112.979V26.6106H111.146Z" fill="#FDFFFB"/>
<path d="M118.699 20.1598C119.201 20.1598 119.648 20.2607 120.045 20.46C120.441 20.6619 120.752 20.967 120.979 21.3805C121.207 21.794 121.32 22.3232 121.32 22.9705V26.6081H119.487V23.2535C119.487 22.7416 119.374 22.3625 119.152 22.1189C118.929 21.8752 118.613 21.7522 118.207 21.7522C117.919 21.7522 117.657 21.8137 117.427 21.9343C117.197 22.0574 117.016 22.2444 116.886 22.4955C116.756 22.7465 116.693 23.0714 116.693 23.4652V26.6081H114.86V20.2533H116.61V22.0131L116.282 21.4814C116.509 21.0556 116.835 20.7283 117.256 20.5019C117.679 20.273 118.161 20.1598 118.699 20.1598Z" fill="#FDFFFB"/>
<path d="M126.333 26.7066C125.611 26.7066 124.98 26.5638 124.437 26.2808C123.893 25.9978 123.473 25.6089 123.174 25.1166C122.876 24.6244 122.729 24.0632 122.729 23.4332C122.729 22.8031 122.876 22.2296 123.169 21.7374C123.463 21.2452 123.864 20.8587 124.373 20.5806C124.882 20.3001 125.457 20.1622 126.1 20.1622C126.744 20.1622 127.277 20.2951 127.774 20.5585C128.271 20.8218 128.664 21.2009 128.953 21.6931C129.242 22.1853 129.389 22.7736 129.389 23.4602C129.389 23.5316 129.384 23.6128 129.376 23.7014C129.369 23.7925 129.362 23.8762 129.352 23.9549H124.219V22.8794H128.388L127.683 23.1994C127.683 22.8696 127.617 22.5816 127.483 22.3379C127.351 22.0943 127.165 21.9023 126.93 21.7645C126.695 21.6266 126.421 21.5577 126.108 21.5577C125.794 21.5577 125.518 21.6266 125.281 21.7645C125.041 21.9023 124.855 22.0943 124.723 22.3429C124.591 22.5914 124.522 22.8843 124.522 23.224V23.507C124.522 23.854 124.598 24.1592 124.752 24.4226C124.906 24.6859 125.119 24.8877 125.398 25.0256C125.677 25.1634 126.002 25.2323 126.379 25.2323C126.717 25.2323 127.01 25.1806 127.265 25.0797C127.519 24.9763 127.752 24.8238 127.965 24.6195L128.938 25.6827C128.65 26.0125 128.285 26.2685 127.847 26.4457C127.409 26.6229 126.903 26.7115 126.333 26.7115V26.7066Z" fill="#FDFFFB"/>
<path d="M132.909 26.7066C132.369 26.7066 131.85 26.6426 131.353 26.5121C130.857 26.3817 130.463 26.2193 130.174 26.0224L130.786 24.6982C131.074 24.8804 131.417 25.028 131.813 25.1413C132.21 25.2545 132.599 25.3135 132.983 25.3135C133.406 25.3135 133.705 25.2619 133.881 25.1609C134.057 25.0576 134.145 24.9173 134.145 24.7352C134.145 24.585 134.077 24.4743 133.94 24.398C133.803 24.3241 133.621 24.2651 133.394 24.2257C133.166 24.1863 132.919 24.1469 132.648 24.1075C132.379 24.0682 132.105 24.014 131.83 23.9476C131.556 23.8811 131.307 23.7802 131.079 23.6473C130.852 23.5144 130.671 23.3323 130.534 23.1034C130.397 22.8745 130.328 22.5791 130.328 22.2173C130.328 21.8162 130.443 21.4617 130.676 21.1541C130.906 20.8464 131.241 20.6052 131.679 20.428C132.117 20.2508 132.643 20.1622 133.252 20.1622C133.683 20.1622 134.121 20.209 134.568 20.305C135.016 20.401 135.386 20.5363 135.684 20.7185L135.072 22.0303C134.767 21.8482 134.461 21.7251 134.15 21.6586C133.842 21.5922 133.541 21.5577 133.252 21.5577C132.846 21.5577 132.547 21.6119 132.359 21.7226C132.171 21.8334 132.078 21.9737 132.078 22.1484C132.078 22.3059 132.146 22.4241 132.283 22.5028C132.42 22.5816 132.601 22.6456 132.829 22.6923C133.056 22.7391 133.303 22.781 133.575 22.8154C133.844 22.8499 134.116 22.904 134.392 22.9754C134.666 23.0468 134.916 23.1477 135.138 23.2757C135.361 23.4061 135.545 23.5833 135.684 23.8073C135.826 24.0312 135.894 24.3241 135.894 24.6884C135.894 25.0822 135.777 25.4317 135.542 25.7344C135.307 26.0371 134.97 26.2759 134.527 26.4482C134.084 26.6204 133.546 26.709 132.912 26.709L132.909 26.7066Z" fill="#FDFFFB"/>
<path d="M139.322 26.7066C138.781 26.7066 138.263 26.6426 137.766 26.5121C137.269 26.3817 136.876 26.2193 136.587 26.0224L137.198 24.6982C137.487 24.8804 137.83 25.028 138.226 25.1413C138.622 25.2545 139.011 25.3135 139.396 25.3135C139.819 25.3135 140.117 25.2619 140.294 25.1609C140.47 25.0576 140.558 24.9173 140.558 24.7352C140.558 24.585 140.489 24.4743 140.352 24.398C140.215 24.3241 140.034 24.2651 139.807 24.2257C139.579 24.1863 139.332 24.1469 139.06 24.1075C138.791 24.0682 138.517 24.014 138.243 23.9476C137.969 23.8811 137.72 23.7802 137.492 23.6473C137.265 23.5144 137.083 23.3323 136.946 23.1034C136.809 22.8745 136.741 22.5791 136.741 22.2173C136.741 21.8162 136.856 21.4617 137.088 21.1541C137.318 20.8464 137.654 20.6052 138.092 20.428C138.529 20.2508 139.056 20.1622 139.665 20.1622C140.095 20.1622 140.533 20.209 140.981 20.305C141.429 20.401 141.798 20.5363 142.097 20.7185L141.485 22.0303C141.179 21.8482 140.873 21.7251 140.563 21.6586C140.254 21.5922 139.953 21.5577 139.665 21.5577C139.259 21.5577 138.96 21.6119 138.772 21.7226C138.583 21.8334 138.49 21.9737 138.49 22.1484C138.49 22.3059 138.559 22.4241 138.696 22.5028C138.833 22.5816 139.014 22.6456 139.241 22.6923C139.469 22.7391 139.716 22.781 139.988 22.8154C140.257 22.8499 140.528 22.904 140.805 22.9754C141.079 23.0468 141.328 23.1477 141.551 23.2757C141.774 23.4061 141.957 23.5833 142.097 23.8073C142.239 24.0312 142.307 24.3241 142.307 24.6884C142.307 25.0822 142.19 25.4317 141.955 25.7344C141.72 26.0371 141.382 26.2759 140.939 26.4482C140.497 26.6204 139.958 26.709 139.325 26.709L139.322 26.7066Z" fill="#FDFFFB"/>
<path d="M87.4596 38.9166V30.647H89.3631V38.9166H87.4596Z" fill="#FDFFFB"/>
<path d="M95.1985 32.4658C95.7001 32.4658 96.1478 32.5667 96.5442 32.7661C96.9405 32.9679 97.2513 33.2731 97.4788 33.6866C97.7064 34.1001 97.8189 34.6292 97.8189 35.2765V38.9142H95.9863V35.5596C95.9863 35.0476 95.8738 34.6686 95.6511 34.4249C95.4285 34.1813 95.1129 34.0582 94.7067 34.0582C94.418 34.0582 94.1562 34.1197 93.9262 34.2403C93.6962 34.3634 93.5152 34.5505 93.3855 34.8015C93.2558 35.0525 93.1922 35.3774 93.1922 35.7712V38.9142H91.3596V32.5593H93.109V34.3191L92.7811 33.7875C93.0087 33.3617 93.3341 33.0344 93.7549 32.8079C94.1782 32.579 94.6602 32.4658 95.1985 32.4658Z" fill="#FDFFFB"/>
<path d="M98.8979 34.1197V32.7021H103.278V34.1197H98.8979ZM102.233 39.0126C101.489 39.0126 100.909 38.8206 100.496 38.4392C100.08 38.0577 99.8742 37.4891 99.8742 36.7311V31.154H101.707V36.7065C101.707 36.9747 101.778 37.1815 101.917 37.3267C102.059 37.4719 102.25 37.5457 102.492 37.5457C102.781 37.5457 103.028 37.467 103.231 37.3095L103.725 38.609C103.537 38.7419 103.312 38.8428 103.05 38.9093C102.788 38.9757 102.517 39.0102 102.233 39.0102V39.0126Z" fill="#FDFFFB"/>
<path d="M107.87 39.0126C107.148 39.0126 106.517 38.8699 105.974 38.5868C105.431 38.3038 105.01 37.9149 104.711 37.4227C104.413 36.9304 104.266 36.3693 104.266 35.7392C104.266 35.1091 104.413 34.5357 104.706 34.0434C105 33.5512 105.401 33.1648 105.91 32.8867C106.419 32.6086 106.994 32.4683 107.638 32.4683C108.281 32.4683 108.814 32.6012 109.311 32.8645C109.808 33.1279 110.202 33.5069 110.49 33.9991C110.779 34.4914 110.926 35.0796 110.926 35.7663C110.926 35.8377 110.921 35.9189 110.914 36.0075C110.906 36.0986 110.899 36.1822 110.889 36.261H105.756V35.1854H109.925L109.221 35.5054C109.221 35.1756 109.154 34.8876 109.02 34.644C108.888 34.4003 108.702 34.2083 108.467 34.0705C108.232 33.9327 107.958 33.8638 107.645 33.8638C107.332 33.8638 107.055 33.9327 106.818 34.0705C106.578 34.2083 106.392 34.4003 106.26 34.6489C106.128 34.8975 106.059 35.1904 106.059 35.53V35.8131C106.059 36.1601 106.135 36.4653 106.289 36.7286C106.441 36.992 106.656 37.1938 106.935 37.3316C107.214 37.4694 107.54 37.5384 107.916 37.5384C108.254 37.5384 108.548 37.4867 108.802 37.3858C109.057 37.2824 109.289 37.1298 109.502 36.9255L110.476 37.9888C110.187 38.3186 109.822 38.5745 109.384 38.7517C108.947 38.9289 108.44 39.0175 107.87 39.0175V39.0126Z" fill="#FDFFFB"/>
<path d="M112.321 38.9166V30.1498H114.153V38.9166H112.321Z" fill="#FDFFFB"/>
<path d="M116.032 38.9166V30.1498H117.865V38.9166H116.032Z" fill="#FDFFFB"/>
<path d="M120.661 31.6758C120.324 31.6758 120.05 31.5773 119.839 31.3804C119.629 31.1835 119.521 30.9399 119.521 30.647C119.521 30.3541 119.626 30.1104 119.839 29.9135C120.05 29.7166 120.324 29.6182 120.661 29.6182C120.999 29.6182 121.273 29.7117 121.483 29.8963C121.694 30.0809 121.801 30.3196 121.801 30.6101C121.801 30.9177 121.699 31.1712 121.491 31.373C121.283 31.5749 121.006 31.6733 120.664 31.6733L120.661 31.6758ZM119.744 38.9166V32.5618H121.576V38.9166H119.744Z" fill="#FDFFFB"/>
<path d="M126.144 38.609C125.557 38.609 125.026 38.481 124.554 38.225C124.079 37.9691 123.7 37.6097 123.414 37.1495C123.128 36.6892 122.986 36.1502 122.986 35.5374C122.986 34.9246 123.128 34.3732 123.414 33.913C123.7 33.4528 124.079 33.0959 124.554 32.8448C125.029 32.5938 125.557 32.4658 126.144 32.4658C126.678 32.4658 127.147 32.5741 127.554 32.7907C127.96 33.0073 128.278 33.342 128.505 33.7949C128.733 34.2477 128.845 34.8286 128.845 35.5374C128.845 36.2462 128.733 36.8148 128.505 37.2676C128.278 37.7205 127.962 38.0577 127.554 38.2767C127.147 38.4982 126.678 38.6065 126.144 38.6065V38.609ZM126.426 41.304C125.831 41.304 125.256 41.2302 124.706 41.085C124.153 40.9398 123.693 40.7207 123.326 40.4303L124.055 39.1062C124.321 39.3277 124.659 39.5024 125.07 39.6329C125.481 39.7633 125.887 39.8273 126.286 39.8273C126.937 39.8273 127.407 39.6821 127.7 39.3892C127.994 39.0988 128.141 38.6656 128.141 38.0897V37.1323L128.258 35.5374L128.234 33.9302V32.5593H129.971V37.8509C129.971 39.0323 129.665 39.9036 129.056 40.4623C128.444 41.021 127.568 41.3016 126.426 41.3016V41.304ZM126.509 37.0978C126.829 37.0978 127.116 37.0338 127.365 36.9034C127.615 36.7729 127.81 36.5908 127.952 36.3545C128.094 36.1182 128.163 35.8475 128.163 35.5399C128.163 35.2322 128.092 34.9516 127.952 34.7178C127.81 34.4865 127.615 34.3043 127.365 34.1739C127.113 34.0434 126.829 33.9795 126.509 33.9795C126.188 33.9795 125.902 34.0434 125.652 34.1739C125.403 34.3043 125.205 34.484 125.06 34.7178C124.916 34.9492 124.843 35.2248 124.843 35.5399C124.843 35.8549 124.914 36.1182 125.06 36.3545C125.205 36.5908 125.403 36.7729 125.652 36.9034C125.902 37.0338 126.188 37.0978 126.509 37.0978Z" fill="#FDFFFB"/>
<path d="M134.987 39.0126C134.265 39.0126 133.634 38.8699 133.09 38.5868C132.547 38.3038 132.126 37.9149 131.828 37.4227C131.529 36.9304 131.383 36.3693 131.383 35.7392C131.383 35.1091 131.53 34.5357 131.823 34.0434C132.117 33.5512 132.518 33.1648 133.027 32.8867C133.536 32.6086 134.111 32.4683 134.754 32.4683C135.398 32.4683 135.931 32.6012 136.428 32.8645C136.924 33.1279 137.318 33.5069 137.607 33.9991C137.896 34.4914 138.043 35.0796 138.043 35.7663C138.043 35.8377 138.038 35.9189 138.03 36.0075C138.023 36.0986 138.016 36.1822 138.006 36.261H132.873V35.1854H137.042L136.337 35.5054C136.337 35.1756 136.271 34.8876 136.137 34.644C136.004 34.4003 135.819 34.2083 135.584 34.0705C135.349 33.9327 135.075 33.8638 134.762 33.8638C134.448 33.8638 134.172 33.9327 133.935 34.0705C133.695 34.2083 133.509 34.4003 133.377 34.6489C133.245 34.8975 133.176 35.1904 133.176 35.53V35.8131C133.176 36.1601 133.252 36.4653 133.406 36.7286C133.558 36.992 133.773 37.1938 134.052 37.3316C134.331 37.4694 134.656 37.5384 135.033 37.5384C135.371 37.5384 135.664 37.4867 135.919 37.3858C136.173 37.2824 136.406 37.1298 136.619 36.9255L137.592 37.9888C137.304 38.3186 136.939 38.5745 136.501 38.7517C136.063 38.9289 135.557 39.0175 134.987 39.0175V39.0126Z" fill="#FDFFFB"/>
<path d="M143.279 32.4658C143.78 32.4658 144.228 32.5667 144.624 32.7661C145.021 32.9679 145.331 33.2731 145.559 33.6866C145.786 34.1001 145.899 34.6292 145.899 35.2765V38.9142H144.066V35.5596C144.066 35.0476 143.954 34.6686 143.731 34.4249C143.509 34.1813 143.193 34.0582 142.787 34.0582C142.498 34.0582 142.236 34.1197 142.006 34.2403C141.776 34.3634 141.595 34.5505 141.466 34.8015C141.336 35.0525 141.272 35.3774 141.272 35.7712V38.9142H139.44V32.5593H141.189V34.3191L140.861 33.7875C141.089 33.3617 141.414 33.0344 141.835 32.8079C142.258 32.579 142.74 32.4658 143.279 32.4658Z" fill="#FDFFFB"/>
<path d="M150.831 39.0126C150.151 39.0126 149.545 38.8723 149.011 38.5942C148.478 38.3161 148.062 37.9272 147.761 37.4301C147.46 36.9329 147.308 36.3718 147.308 35.7417C147.308 35.1116 147.46 34.5382 147.761 34.0459C148.062 33.5537 148.48 33.1673 149.011 32.8891C149.545 32.6086 150.151 32.4707 150.831 32.4707C151.512 32.4707 152.077 32.611 152.569 32.8891C153.06 33.1673 153.425 33.5684 153.66 34.0877L152.238 34.8556C152.074 34.5554 151.869 34.3363 151.622 34.1936C151.375 34.0508 151.108 33.9819 150.817 33.9819C150.504 33.9819 150.222 34.0533 149.97 34.1936C149.718 34.3339 149.522 34.5357 149.378 34.7966C149.234 35.0575 149.16 35.3725 149.16 35.7417C149.16 36.1109 149.231 36.4259 149.378 36.6868C149.522 36.9477 149.721 37.147 149.97 37.2898C150.22 37.4325 150.504 37.5014 150.817 37.5014C151.105 37.5014 151.375 37.4325 151.622 37.2947C151.869 37.1569 152.074 36.9354 152.238 36.6277L153.66 37.4079C153.425 37.9199 153.06 38.3161 152.569 38.5942C152.074 38.8748 151.497 39.0126 150.831 39.0126Z" fill="#FDFFFB"/>
<path d="M157.947 39.0126C157.225 39.0126 156.593 38.8699 156.05 38.5868C155.507 38.3038 155.086 37.9149 154.788 37.4227C154.489 36.9304 154.343 36.3693 154.343 35.7392C154.343 35.1091 154.489 34.5357 154.783 34.0434C155.077 33.5512 155.478 33.1648 155.987 32.8867C156.496 32.6086 157.071 32.4683 157.714 32.4683C158.358 32.4683 158.891 32.6012 159.388 32.8645C159.884 33.1279 160.278 33.5069 160.567 33.9991C160.856 34.4914 161.002 35.0796 161.002 35.7663C161.002 35.8377 160.998 35.9189 160.99 36.0075C160.983 36.0986 160.976 36.1822 160.966 36.261H155.833V35.1854H160.002L159.297 35.5054C159.297 35.1756 159.231 34.8876 159.096 34.644C158.964 34.4003 158.778 34.2083 158.544 34.0705C158.309 33.9327 158.035 33.8638 157.721 33.8638C157.408 33.8638 157.132 33.9327 156.894 34.0705C156.655 34.2083 156.469 34.4003 156.337 34.6489C156.204 34.8975 156.136 35.1904 156.136 35.53V35.8131C156.136 36.1601 156.212 36.4653 156.366 36.7286C156.518 36.992 156.733 37.1938 157.012 37.3316C157.291 37.4694 157.616 37.5384 157.993 37.5384C158.331 37.5384 158.624 37.4867 158.879 37.3858C159.133 37.2824 159.366 37.1298 159.578 36.9255L160.552 37.9888C160.264 38.3186 159.899 38.5745 159.461 38.7517C159.023 38.9289 158.517 39.0175 157.947 39.0175V39.0126Z" fill="#FDFFFB"/>
<path d="M82.4293 0H80.4768V46H82.4293V0Z" fill="#F8AA37"/>
<path d="M45.2394 16.8765C44.5446 16.4212 43.5488 16.1948 42.2496 16.1948H36.9329V21.6759H42.2496C43.5488 21.6759 44.5446 21.4494 45.2394 20.9966C45.9318 20.5413 46.2793 19.8497 46.2793 18.9193C46.2793 17.989 45.9318 17.3294 45.2394 16.8765ZM46.3282 26.3128C45.6138 25.8353 44.5617 25.5966 43.1744 25.5966H36.9329V31.346H43.1744C44.5617 31.346 45.6138 31.1195 46.3282 30.6642C47.0451 30.2113 47.4023 29.4853 47.4023 28.4885C47.4023 27.4917 47.0451 26.7878 46.3282 26.3128ZM46.3282 26.3128C45.6138 25.8353 44.5617 25.5966 43.1744 25.5966H36.9329V31.346H43.1744C44.5617 31.346 45.6138 31.1195 46.3282 30.6642C47.0451 30.2113 47.4023 29.4853 47.4023 28.4885C47.4023 27.4917 47.0451 26.7878 46.3282 26.3128ZM45.2394 20.9966C45.9318 20.5413 46.2793 19.8497 46.2793 18.9193C46.2793 17.989 45.9318 17.3294 45.2394 16.8765C44.5446 16.4212 43.5488 16.1948 42.2496 16.1948H36.9329V21.6759H42.2496C43.5488 21.6759 44.5446 21.4494 45.2394 20.9966ZM6.39567 0C2.86264 0 0 2.87961 0 6.43114V39.5664C0 43.1204 2.86264 46 6.39567 46H79.2289V0H6.39567ZM13.562 26.7927C13.9266 27.7009 14.438 28.4885 15.0986 29.153C15.7592 29.8176 16.5421 30.327 17.445 30.6814C18.3478 31.0359 19.3387 31.2131 20.4177 31.2131C21.5603 31.2131 22.6197 30.9866 23.5886 30.5313C24.5575 30.0784 25.4383 29.3844 26.231 28.454L29.6662 31.6438C28.5652 32.995 27.2048 34.0262 25.5851 34.735C23.9678 35.4439 22.1451 35.7983 20.1192 35.7983C18.3355 35.7983 16.6791 35.5029 15.1475 34.9172C13.6183 34.3314 12.2922 33.4946 11.1692 32.4092C10.0461 31.3238 9.17022 30.0489 8.54142 28.5869C7.91506 27.125 7.60189 25.5203 7.60189 23.7704C7.60189 22.0204 7.91506 20.4133 8.54142 18.9513C9.17022 17.4894 10.051 16.2169 11.1839 15.1315C12.3191 14.0461 13.6452 13.2093 15.1646 12.6235C16.684 12.0353 18.3478 11.7424 20.1534 11.7424C22.1573 11.7424 23.9678 12.0919 25.5851 12.7884C27.2048 13.485 28.5652 14.5113 29.6662 15.8625L26.231 19.0522C25.4383 18.144 24.5575 17.4623 23.5886 17.0094C22.6197 16.5541 21.5603 16.3277 20.4177 16.3277C19.3387 16.3277 18.3478 16.5049 17.445 16.8593C16.5421 17.2137 15.7592 17.7232 15.0986 18.3877C14.438 19.0522 13.9266 19.8373 13.562 20.7455C13.1999 21.6537 13.0189 22.6628 13.0189 23.7704C13.0189 24.8779 13.1999 25.8845 13.562 26.7927ZM50.4754 33.721C48.9119 34.8409 46.6096 35.3996 43.5708 35.3996H31.6138V12.1411H42.9102C45.8168 12.1411 48.0017 12.6949 49.4673 13.8025C50.9304 14.91 51.6645 16.372 51.6645 18.1883C51.6645 19.4066 51.366 20.465 50.7714 21.3608C50.2356 22.1706 49.5211 22.8105 48.6281 23.2855C48.841 23.3569 49.0489 23.4356 49.252 23.5218C50.375 23.9968 51.251 24.7007 51.8773 25.631C52.5061 26.5614 52.8193 27.7009 52.8193 29.0521C52.8193 31.0457 52.0388 32.6036 50.4754 33.721ZM60.5827 35.3996H55.2317V12.1411H60.5827V35.3996ZM46.3282 26.3128C45.6138 25.8353 44.5617 25.5966 43.1744 25.5966H36.9329V31.346H43.1744C44.5617 31.346 45.6138 31.1195 46.3282 30.6642C47.0451 30.2113 47.4023 29.4853 47.4023 28.4885C47.4023 27.4917 47.0451 26.7878 46.3282 26.3128ZM45.2394 20.9966C45.9318 20.5413 46.2793 19.8497 46.2793 18.9193C46.2793 17.989 45.9318 17.3294 45.2394 16.8765C44.5446 16.4212 43.5488 16.1948 42.2496 16.1948H36.9329V21.6759H42.2496C43.5488 21.6759 44.5446 21.4494 45.2394 20.9966Z" fill="#FDFFFB"/>
</g>
<defs>
<clipPath id="clip0_227_162">
<rect width="161" height="46" fill="white"/>
</clipPath>
</defs>
</svg>
