<svg width="52" height="35" viewBox="0 0 52 35" fill="none" xmlns="http://www.w3.org/2000/svg">
<g clip-path="url(#clip0_60_118)">
<path d="M33.0479 12.6646C32.5423 12.5013 31.9022 12.4196 31.1184 12.4196H27.5701V15.9351H31.5358C32.2455 15.9351 32.8206 15.8035 33.2613 15.5404C33.7019 15.2773 33.9245 14.8101 33.9245 14.1388C33.9245 13.3949 33.6323 12.905 33.0479 12.6646ZM33.2149 18.8472C32.8299 18.6748 32.2872 18.5841 31.5868 18.575H27.5701V22.8298H31.5312C32.2362 22.8298 32.7882 22.7346 33.1824 22.5486C33.8967 22.2039 34.2539 21.5371 34.2539 20.5573C34.2539 19.7272 33.9106 19.1556 33.2149 18.8472ZM33.2149 18.8472C32.8299 18.6748 32.2872 18.5841 31.5868 18.575H27.5701V22.8298H31.5312C32.2362 22.8298 32.7882 22.7346 33.1824 22.5486C33.8967 22.2039 34.2539 21.5371 34.2539 20.5573C34.2539 19.7272 33.9106 19.1556 33.2149 18.8472ZM33.2613 15.5404C33.7019 15.2773 33.9245 14.8101 33.9245 14.1388C33.9245 13.3949 33.6323 12.905 33.0479 12.6646C32.5423 12.5013 31.9022 12.4196 31.1184 12.4196H27.5701V15.9351H31.5358C32.2455 15.9351 32.8206 15.8035 33.2613 15.5404ZM48.0343 0H3.96575C1.77647 0 0 1.7373 0 3.8783V31.1217C0 33.2627 1.77647 35 3.96575 35H48.0343C50.2235 35 52 33.2627 52 31.1217V3.8783C52 1.7373 50.2235 0 48.0343 0ZM11.7766 21.8274C12.5188 22.721 13.4604 23.1655 14.5967 23.1655C15.7331 23.1655 16.6608 22.7845 17.273 22.0179C17.6116 21.6051 17.8946 20.9882 18.1172 20.1672H21.5032C21.211 21.909 20.4642 23.3197 19.2629 24.4084C18.0662 25.5016 16.5263 26.0459 14.6478 26.0459C12.3286 26.0459 10.5058 25.311 9.17456 23.8368C7.84801 22.3581 7.18009 20.3305 7.18009 17.754C7.18009 14.9689 7.93613 12.8234 9.44822 11.3129C10.7609 10.0019 12.4353 9.34422 14.4622 9.34422C17.1803 9.34422 19.1655 10.2242 20.4224 11.9842C21.1135 12.973 21.4846 13.9664 21.5356 14.9598H18.1265C17.9131 14.1978 17.6348 13.6172 17.2916 13.2316C16.6886 12.5376 15.7841 12.1883 14.5921 12.1883C13.4001 12.1883 12.4214 12.6782 11.721 13.658C11.0206 14.6332 10.6681 16.0167 10.6681 17.8084C10.6681 19.6002 11.0392 20.9383 11.7766 21.8274ZM36.9719 23.3288C36.6611 23.8278 36.2762 24.2451 35.817 24.5853C35.2928 24.9754 34.6806 25.2385 33.9709 25.3836C33.2659 25.5288 32.4959 25.6013 31.6657 25.6013H24.314V9.64813H32.1991C34.1889 9.67535 35.599 10.2424 36.4292 11.3446C36.9255 12.025 37.176 12.837 37.176 13.7805C37.176 14.7239 36.9255 15.5404 36.4199 16.1301C36.1416 16.4612 35.7242 16.7652 35.1769 17.0373C36.0118 17.3367 36.6379 17.8039 37.06 18.448C37.4868 19.0876 37.6955 19.8678 37.6955 20.7841C37.6955 21.7004 37.4543 22.5758 36.9719 23.3288ZM43.7392 25.6013H40.3532V9.64813H43.7392V25.6013ZM33.2149 18.8472C32.8299 18.6748 32.2872 18.5841 31.5868 18.575H27.5701V22.8298H31.5312C32.2362 22.8298 32.7882 22.7346 33.1824 22.5486C33.8967 22.2039 34.2539 21.5371 34.2539 20.5573C34.2539 19.7272 33.9106 19.1556 33.2149 18.8472ZM33.2613 15.5404C33.7019 15.2773 33.9245 14.8101 33.9245 14.1388C33.9245 13.3949 33.6323 12.905 33.0479 12.6646C32.5423 12.5013 31.9022 12.4196 31.1184 12.4196H27.5701V15.9351H31.5358C32.2455 15.9351 32.8206 15.8035 33.2613 15.5404Z" fill="white"/>
</g>
<defs>
<clipPath id="clip0_60_118">
<rect width="52" height="35" fill="white"/>
</clipPath>
</defs>
</svg>
